<?xml version="1.0" encoding="UTF-8" standalone="no"?>
<!-- Created with Inkscape (http://www.inkscape.org/) -->

<svg
   width="482.61154mm"
   height="474.62961mm"
   viewBox="0 0 482.61154 474.62961"
   version="1.1"
   id="svg1"
   xml:space="preserve"
   xmlns:xlink="http://www.w3.org/1999/xlink"
   xmlns="http://www.w3.org/2000/svg"
   xmlns:svg="http://www.w3.org/2000/svg"><defs
     id="defs1"><linearGradient
       id="linearGradient254"><stop
         style="stop-color:#8800aa;stop-opacity:1"
         offset="0"
         id="stop254" /><stop
         style="stop-color:#55ddff;stop-opacity:1"
         offset="1"
         id="stop255" /></linearGradient><linearGradient
       xlink:href="#linearGradient254"
       id="linearGradient255"
       x1="57.41264"
       y1="596.20819"
       x2="58.884758"
       y2="122.18587"
       gradientUnits="userSpaceOnUse" /></defs><g
     id="layer1"
     transform="translate(189.37489,-121.6504)"><path
       style="fill:url(#linearGradient255);fill-opacity:1"
       d="m 117.00689,595.15578 c 0.36205,-1.13388 2.55808,-8.52228 5.28863,-17.79323 2.22283,-7.54711 10.61825,-32.69608 11.9239,-35.71875 3.16113,-7.3182 7.11862,-12.77749 12.80536,-17.66474 6.32891,-5.43915 11.94895,-8.38426 19.74417,-10.34671 6.15651,-1.5499 6.45154,-1.5675 29.35405,-1.75148 20.56437,-0.1652 21.2286,-0.18632 23.3431,-0.74229 6.88944,-1.81148 11.21444,-5.94942 12.65862,-12.11115 0.63474,-2.70818 0.39094,-8.90183 -0.53563,-13.60758 -0.84247,-4.2786 -1.14064,-9.57227 -0.70043,-12.43542 0.87686,-5.70311 4.01638,-11.09953 9.13114,-15.6952 1.21714,-1.09362 2.00841,-2.01089 2.00841,-2.32824 0,-1.03284 -0.81373,-2.0184 -5.37847,-6.51421 -4.05155,-3.99038 -4.68803,-4.73167 -5.0826,-5.91961 -0.36572,-1.10109 -0.39536,-1.5439 -0.15665,-2.34063 0.37506,-1.25184 0.55097,-1.4026 4.58431,-3.92891 1.84761,-1.15727 5.03254,-3.33099 7.0776,-4.83049 4.35039,-3.18982 4.20586,-2.82387 2.78835,-7.06004 -3.7862,-11.31488 -3.62449,-19.40412 0.51674,-25.84922 2.29897,-3.57795 7.65153,-8.17176 12.34735,-10.59706 1.30781,-0.67545 4.00944,-1.76336 6.00362,-2.41757 4.06189,-1.33254 4.72731,-1.67917 5.09873,-2.65607 0.33425,-0.87916 0.31295,-0.91513 -7.21892,-12.19035 l -6.05342,-9.06198 h -32.60773 c -35.53081,0 -34.12789,0.0565 -36.96489,-1.48763 -1.61055,-0.87656 -3.67724,-2.99347 -4.87621,-4.99466 -1.10343,-1.84173 -2.75689,-6.79137 -7.46136,-22.3356 -1.83135,-6.05104 -3.57614,-11.80557 -3.87732,-12.78783 -0.30118,-0.98227 -0.64272,-1.78594 -0.75899,-1.78594 -0.11626,0 -0.21139,0.11346 -0.21139,0.25213 0,0.22296 -0.85518,4.9449 -2.37421,13.10933 -2.23998,12.03941 -3.72479,20.0965 -3.94947,21.43125 -0.46466,2.76041 -2.15718,11.57625 -2.53981,13.22916 -1.06837,4.61525 -3.24268,15.79698 -4.75899,24.47396 -0.6739,3.8563 -1.45343,8.14255 -1.73229,9.525 -0.27885,1.38245 -0.861,4.47807 -1.29365,6.87917 -0.43265,2.40109 -1.08651,5.97296 -1.45303,7.9375 -0.36651,1.96453 -0.85241,4.5839 -1.07977,5.82083 -0.22737,1.23693 -1.07403,5.82083 -1.88147,10.18646 -0.80743,4.36562 -2.15959,11.75375 -3.00479,16.41806 -1.31565,7.2605 -1.65963,8.72402 -2.39099,10.17283 -1.14026,2.25886 -3.19109,4.2154 -5.73613,5.47241 -2.01142,0.99345 -2.09305,1.00961 -5.09925,1.00961 -2.88115,0 -3.15573,-0.0477 -4.82242,-0.83728 -3.09122,-1.46449 -5.55646,-4.25805 -6.40163,-7.25418 -0.47669,-1.68986 -1.61783,-9.5219 -2.94595,-20.21895 -0.52396,-4.22011 -1.23849,-9.69698 -1.58786,-12.17084 -1.33281,-9.43751 -2.27207,-16.35667 -3.03493,-22.35729 -0.43476,-3.41974 -1.26779,-9.78958 -1.85118,-14.1552 -0.58339,-4.36563 -1.24181,-9.36625 -1.46315,-11.1125 -1.59188,-12.55898 -1.84901,-14.43579 -6.23482,-45.50834 -0.57738,-4.09058 -1.01581,-5.66472 -1.03168,-3.70416 -0.0107,1.31959 -0.39991,5.05947 -2.3819,22.88646 -1.366415,12.29023 -2.471945,22.87925 -3.452925,33.07291 -0.14704,1.52797 -0.67978,6.94531 -1.18387,12.03854 -0.5041,5.09323 -1.04226,10.57011 -1.19592,12.17083 -0.29976,3.12279 -0.92593,8.99437 -1.32615,12.43542 -0.1354,1.16417 -0.72026,6.7601 -1.29968,12.43542 -1.29999,12.73312 -2.2096,21.29318 -3.05048,28.70729 -0.35485,3.12869 -1.01059,9.14135 -1.4572,13.36145 -0.44661,4.22011 -1.16469,10.94714 -1.59572,14.94896 -0.83064,7.7118 -1.25645,11.94975 -2.77807,27.64896 -2.7583,28.45859 -2.99032,30.26057 -4.22467,32.81068 -2.81123,5.80787 -9.73788,8.25536 -15.696927,5.54643 -1.98277,-0.90136 -4.56231,-3.46527 -5.59322,-5.55936 -0.70434,-1.43071 -0.89929,-2.26559 -1.21707,-5.21213 -0.92434,-8.57063 -2.45004,-25.28606 -2.89221,-31.68666 -0.36941,-5.34742 -1.50578,-19.93453 -1.98903,-25.53229 -0.28894,-3.34698 -0.76669,-9.18104 -1.06166,-12.96459 -0.29497,-3.78354 -0.83331,-10.33197 -1.19631,-14.55208 -0.363,-4.2201 -1.13126,-13.86416 -1.70724,-21.43125 -0.93695,-12.30943 -1.59028,-20.7345 -2.00043,-25.79687 -0.0766,-0.94589 -0.1976,-2.25557 -0.26881,-2.91042 -0.17454,-1.60497 -2.93346,-34.89439 -3.27821,-39.5552 -0.55225,-7.46592 -1.36132,-17.41965 -2.13988,-26.32604 -1.41088,-16.14006 -3.32842,-40.57956 -4.22452,-53.84271 -0.48942,-7.24388 -1.11222,-14.8112 -1.2521,-15.21354 -0.25891,-0.74474 -0.54008,1.12794 -0.85409,5.68854 -0.17034,2.47385 -0.48086,6.40292 -0.69005,8.73125 -0.51681,5.75223 -0.72684,8.27707 -2.10194,25.26771 -0.35921,4.43838 -0.89021,10.80823 -1.17999,14.1552 -0.28979,3.34698 -0.70503,8.58573 -0.92275,11.64167 -0.39921,5.60315 -0.85009,11.20718 -1.58593,19.71146 -0.22035,2.54661 -0.46551,5.46364 -0.54481,6.48229 -0.37712,4.84445 -1.24883,14.54656 -1.98496,22.09271 -1.01755,10.43094 -1.20523,12.55328 -1.71971,19.44687 -0.22807,3.05594 -0.58788,7.34219 -0.79956,9.525 -0.42492,4.38155 -1.18569,13.28601 -1.83102,21.43125 -0.45858,5.78808 -2.11229,25.7049 -2.53736,30.55937 -0.14654,1.67349 -0.38324,4.47146 -0.52601,6.21771 -1.06719,13.05332 -1.38963,16.6946 -1.83918,20.76979 -0.28093,2.54662 -0.81531,8.03856 -1.18751,12.20432 -0.83542,9.35009 -1.06161,10.23263 -3.43023,13.38358 -1.42275,1.89269 -3.32875,3.24385 -5.71833,4.05374 -2.27201,0.77005 -6.29919,0.65481 -8.30803,-0.23773 -3.02333,-1.34328 -5.88414,-4.32668 -6.9944,-7.2941 -0.37295,-0.99681 -0.89267,-4.47169 -1.73027,-11.56885 -1.35522,-11.48301 -2.84906,-24.49318 -3.44323,-29.98783 -0.2203,-2.03729 -0.58233,-5.25198 -0.8045,-7.14375 -0.22217,-1.89177 -0.69893,-6.41615 -1.05945,-10.05417 -0.36052,-3.63802 -1.19732,-11.37708 -1.85955,-17.19791 -0.66223,-5.82084 -1.43163,-12.72646 -1.70978,-15.34584 -0.27815,-2.61937 -0.69528,-6.54843 -0.92694,-8.73125 -0.23166,-2.18281 -0.83198,-7.65968 -1.33403,-12.17083 -1.36712,-12.28407 -2.17423,-19.80085 -3.03981,-28.31041 -0.42927,-4.22011 -1.4315,-13.56651 -2.22718,-20.76979 -0.79568,-7.20329 -1.86982,-17.08547 -2.38698,-21.96042 -0.51717,-4.87495 -1.06,-9.87557 -1.20631,-11.1125 -0.44171,-3.73436 -1.28458,-11.40564 -1.439,-13.09687 -0.66277,-7.25903 -2.60039,-23.54012 -2.97563,-25.00313 -0.14607,-0.56951 -0.19812,-0.49596 -0.37442,0.52917 -0.26108,1.5181 -2.13277,15.25599 -3.13615,23.01875 -0.4232,3.27422 -1.19156,8.45343 -1.70746,11.50937 -1.43507,8.50076 -2.2222,13.49819 -3.08384,19.57917 -0.43301,3.05593 -1.14111,7.7589 -1.57355,10.45104 -1.36386,8.49061 -1.82062,11.5339 -4.34837,28.97187 -0.80158,5.52979 -2.17739,14.69761 -3.05736,20.37292 -2.53277,16.33488 -2.54772,16.43516 -4.77104,32.01458 -2.53834,17.78686 -3.57363,24.33482 -4.06997,25.74158 -0.83712,2.37265 -3.34086,5.33262 -5.39869,6.38245 -3.67123,1.87292 -8.49286,1.7441 -12.0168,-0.32106 -1.66486,-0.97568 -3.57456,-3.14534 -4.42407,-5.02634 -0.74113,-1.64101 -2.65757,-9.6092 -5.29463,-22.01413 -0.74244,-3.4925 -1.7673,-8.31453 -2.27746,-10.71563 -0.51016,-2.40109 -1.16065,-5.43718 -1.44554,-6.74687 -0.28488,-1.30969 -1.46956,-6.84609 -2.63261,-12.30312 -2.95747,-13.8765 -4.675968,-21.87112 -5.431478,-25.26771 -0.35605,-1.60073 -1.42581,-6.54182 -2.37724,-10.98021 -0.95144,-4.43838 -2.49767,-11.58213 -3.43607,-15.875 -0.93841,-4.29286 -2.36509,-10.90083 -3.17041,-14.68437 -2.10954,-9.91099 -3.72793,-16.66875 -3.99194,-16.66875 -0.12601,0 -0.56918,1.13109 -0.98483,2.51354 -3.11222,10.35134 -8.95262,27.71749 -9.78802,29.10417 -1.63139,2.70795 -4.28119,4.82523 -7.2753,5.8132 -1.64611,0.54318 -1.9458,0.54804 -29.36875,0.47664 l -27.70566,-0.0721 0.0302,-11.08514 0.0302,-11.08514 23.0554,-0.001 c 16.44098,-7.9e-4 23.12108,-0.0846 23.28431,-0.29194 0.22812,-0.28985 7.24872,-21.53901 12.59668,-38.12625 1.54829,-4.80218 2.87755,-8.90984 2.9539,-9.12812 0.0763,-0.21828 0.71874,-2.43384 1.42753,-4.92345 2.15416,-7.56643 2.9971,-9.46621 5.2481,-11.82798 5.23103,-5.48845 14.11911,-4.5639 18.26709,1.90017 1.33641,2.0826 1.06947,1.05015 5.584138,21.59813 1.183,5.38427 2.43686,11.1588 2.78635,12.83229 0.3495,1.67349 1.05893,4.94771 1.57652,7.27605 0.51759,2.32833 1.28499,5.84067 1.70535,7.8052 0.42035,1.96453 2.1293,9.7036 3.79766,17.19792 2.80078,12.58117 4.50013,20.30609 6.16958,28.04583 1.6277,7.54616 4.8,21.52579 5.04335,22.225 0.27924,0.8023 0.60354,-0.74627 2.18865,-10.45104 0.87943,-5.38427 2.48981,-15.20693 3.57861,-21.82813 1.08881,-6.62119 2.33028,-14.36025 2.75882,-17.19791 0.42855,-2.83766 1.31879,-8.73125 1.97833,-13.09688 0.65954,-4.36562 1.85598,-12.40234 2.65874,-17.85937 0.80277,-5.45703 2.12022,-14.32719 2.92766,-19.71146 1.75277,-11.68797 3.69021,-25.02634 4.24668,-29.23645 0.22119,-1.67349 0.6322,-4.53099 0.91336,-6.35 0.28115,-1.81901 0.63027,-4.14073 0.77583,-5.15938 0.14555,-1.01864 1.10368,-7.62661 2.12918,-14.68437 1.69283,-11.65045 4.55913,-31.63563 4.91412,-34.26354 0.57775,-4.27687 1.2578,-7.48449 1.85395,-8.74465 1.05937,-2.23933 3.00679,-4.1836 5.35061,-5.34198 1.96007,-0.96872 2.08876,-0.99462 4.94217,-0.99462 2.77445,0 3.02286,0.0459 4.68759,0.8654 2.41086,1.18687 4.17069,2.8389 5.18661,4.86892 0.8554,1.70927 1.1656,3.16688 1.63956,7.70402 0.1476,1.41292 0.38387,3.67028 0.52505,5.01635 0.14119,1.34606 0.55434,5.06677 0.91812,8.26822 0.36378,3.20146 1.02588,9.21412 1.47134,13.36146 0.87331,8.13064 2.22737,20.2576 2.64407,23.68021 0.14173,1.16417 0.44436,3.84307 0.6725,5.95312 0.22813,2.11006 0.64054,5.86052 0.91645,8.33438 1.25279,11.23261 1.62277,14.60797 2.10261,19.18229 1.0382,9.89692 3.67767,33.59277 6.11543,54.90104 0.58268,5.09323 1.35387,12.05838 1.71375,15.47812 0.68406,6.50032 1.72334,16.09775 3.05132,28.17813 0.82828,7.53462 2.77980002,23.43294 3.06915002,25.00312 l 0.17064,0.92604 0.1971,-1.05833 c 0.10841,-0.58209 0.38994,-3.32052 0.62561998,-6.08542 0.23569,-2.76489 0.72249,-8.42036 1.08178,-12.56771 0.35929,-4.14734 0.89701,-10.51718 1.19493,-14.1552 0.29792,-3.63802 0.89457,-10.42459 1.32588,-15.08125 0.43131,-4.65667 1.01621,-11.14558 1.29978,-14.41979 0.28356,-3.27422 0.81829,-9.40594 1.18828,-13.62605 0.36999,-4.2201 0.79427,-9.16119 0.94283,-10.9802 0.43353,-5.30829 1.30011,-16.23463 1.5948,-20.10834 0.90934,-11.9532 2.43894,-31.18475 2.76728,-34.7927 0.21189,-2.32834 0.56479,-6.49552 0.78422,-9.26042 0.40563,-5.11101 1.44335,-17.83115 2.64415,-32.41145 0.36553,-4.43839 0.96187,-11.93933 1.32519,-16.66875 0.36332,-4.72943 0.83714,-10.68256 1.05295,-13.22917 0.68744,-8.11228 1.70674,-20.8487 2.13865,-26.72292 0.23005,-3.12869 0.71259,-9.26041 1.07233,-13.62604 0.35974,-4.36562 0.77654,-9.42578 0.92623,-11.24479 0.14968,-1.81901 0.42865,-5.78176 0.61992,-8.80611 0.33905,-5.36093 0.3693,-5.54123 1.20619,-7.19005 1.56025,-3.07394 4.42079,-5.56704 7.47052,-6.51092 2.62739,-0.81316 4.68109,-0.60702 7.3518,0.73796 2.38833,1.20276 4.12696,2.93168 5.4171,5.38682 1.05888,2.01506 1.33771,3.63562 1.58952,9.23855 0.0883,1.96453 0.56756,9.04875 1.06503,15.74271 0.49748,6.69396 1.03372,14.0163 1.19165,16.27187 0.15793,2.25558 0.57915,7.4348 0.93605,11.50938 0.3569,4.07458 0.71493,8.3013 0.79563,9.39271 0.0807,1.0914 0.316,3.88937 0.52288,6.21771 0.45343,5.10311 1.99527,24.52064 3.57154,44.97916 0.30272,3.92906 1.01659,12.62062 1.58637,19.31458 0.56978,6.69396 1.27451,15.02833 1.56606,18.52083 0.29156,3.4925 0.65617,7.83828 0.81026,9.6573 0.15409,1.81901 0.75451,9.55807 1.33425,17.19791 0.57975,7.63984 1.16714,15.08125 1.30531,16.53646 0.13817,1.45521 0.31426,3.41974 0.3913,4.36562 0.077,0.94589 0.37555,4.57729 0.66334,8.06979 0.2878,3.4925 0.70774,8.90985 0.9332,12.03855 0.22546,3.12869 0.4669,6.28385 0.53654,7.01145 0.30114,3.14653 1.23359,14.70413 1.846437,22.88646 0.36513,4.87495 0.72319,9.28026 0.7957,9.78958 0.0725,0.50933 0.36662,3.78354 0.65359,7.27604 0.79048,9.62045 1.26564,14.95549 1.97944,22.225 0.35722,3.63802 0.72751,7.74568 0.82287,9.12813 0.0954,1.38245 0.25733,3.22791 0.35995,4.10104 l 0.18659,1.5875 0.19906,-1.85208 c 0.10949,-1.01865 0.36801,-3.22131 0.5745,-4.8948 0.95566,-7.74534 3.01826,-26.27734 3.94602,-35.45416 1.60729,-15.89823 2.02353,-20.03431 2.24996,-22.35729 1.18708,-12.17871 2.3329,-23.19791 3.5766,-34.39583 0.35557,-3.20146 1.06769,-9.7499 1.58249,-14.55208 0.5148,-4.80219 1.0533,-9.74329 1.19667,-10.98021 0.14337,-1.23693 0.80121,-7.48771 1.46187,-13.89063 0.66065,-6.40291 1.4296,-13.84432 1.70877,-16.53645 0.27916,-2.69214 0.75333,-7.33558 1.05369,-10.31875 0.30036,-2.98318 0.6678,-6.61459 0.81654,-8.06979 1.02848,-10.06253 2.26239,-22.60118 2.61842,-26.60768 0.29305,-3.29773 0.9668,-5.28914 2.40505,-7.10866 2.08098,-2.63264 5.03799,-4.0273 8.588285,-4.05064 4.81884,-0.0317 8.50336,2.22252 10.4836,6.41385 0.5501,1.16433 0.80095,2.54009 1.6885,9.26042 0.24023,1.81901 0.60675,4.55745 0.81448,6.08541 0.86545,6.36575 4.03526,31.40334 5.67771,44.84688 1.23128,10.07814 5.66079,42.63643 7.01925,51.59374 0.90207,5.94801 1.46398,9.91796 2.4904,17.5948 0.59343,4.43838 1.66136,12.23697 2.37318,17.3302 0.71182,5.09323 1.37669,9.94503 1.47748,10.78177 0.10078,0.83675 0.27587,1.52136 0.38907,1.52136 0.11321,0 0.33248,-0.68461 0.48728,-1.52136 0.1548,-0.83674 0.64408,-3.24776 1.08728,-5.35781 0.67554,-3.21623 4.62796,-23.66037 6.36833,-32.94062 1.34463,-7.17003 2.6696,-14.08518 3.26984,-17.06563 0.36634,-1.81901 0.97562,-5.09272 1.35396,-7.27492 0.37834,-2.18219 1.33031,-7.30188 2.11549,-11.37708 0.78518,-4.0752 1.73688,-9.07633 2.11488,-11.11362 0.37801,-2.03729 1.22337,-6.50214 1.87857,-9.92187 0.65521,-3.41974 1.41621,-7.40834 1.69111,-8.86355 0.2749,-1.4552 0.81612,-4.3127 1.2027,-6.35 1.15373,-6.0801 2.98294,-8.95253 6.94873,-10.91163 1.96843,-0.9724 2.07867,-0.99431 4.93661,-0.98104 3.23992,0.015 4.61141,0.40174 6.82405,1.92407 2.25661,1.5526 3.43509,3.51234 4.91681,8.1764 1.30567,4.10989 4.37192,14.23614 6.271,20.70991 0.53361,1.81901 1.3639,4.61698 1.8451,6.21771 0.48119,1.60073 1.19491,4.04151 1.58603,5.42396 0.39113,1.38245 1.16998,4.00182 1.73078,5.82083 0.5608,1.81901 1.25149,4.14073 1.53488,5.15938 0.46803,1.68236 2.93263,9.80173 5.96888,19.66386 0.64156,2.08388 1.24738,3.86982 1.34626,3.96875 0.22957,0.22969 40.51447,0.23804 40.7443,0.008 0.0944,-0.0943 -0.67901,-1.72223 -1.71866,-3.61764 -4.38981,-8.00309 -6.95502,-16.06687 -7.69672,-24.1947 -0.31348,-3.43518 -0.0253,-8.95874 0.69579,-13.33528 0.88739,-5.38599 0.76029,-15.61876 -0.29193,-23.50385 -2.35364,-17.63758 -6.96463,-33.19253 -14.02158,-47.30113 -3.06166,-6.121 -4.66394,-8.88281 -8.40016,-14.47907 -5.61426,-8.40927 -9.87617,-13.6688 -16.69263,-20.60002 -8.54951,-8.69344 -17.33116,-15.53616 -28.99503,-22.59311 -11.82416,-7.15393 -23.68043,-12.4337 -36.64479,-16.31845 -2.47385,-0.74129 -5.09059,-1.52956 -5.81497,-1.75172 -4.3348,-1.32944 -17.3674,-4.18094 -21.569405,-4.71933 -0.65484,-0.0839 -2.73844,-0.38452 -4.63021,-0.66804 -1.89177,-0.28352 -5.04693,-0.64637 -7.01146,-0.80634 -1.96453,-0.15997 -4.16718,-0.34596 -4.89479,-0.4133 -0.7276,-0.0673 -4.8098,-0.20148 -9.07155,-0.29808 -4.26175,-0.0966 -7.79657,-0.25319 -7.85515,-0.34797 -0.0586,-0.0948 -0.35819,-3.14231 -0.6658,-6.77226 -0.30761,-3.62996 -0.676397,-7.43336 -0.819527,-8.452 -0.14314,-1.01865 -0.33023,-3.01742 -0.41577,-4.44172 l -0.15552,-2.58964 5.258327,0.0502 c 5.88615,0.0561 9.50414,0.25747 18.75208,1.04352 6.17212,0.52461 17.289825,1.8375 19.883295,2.34802 0.70585,0.13895 2.2954,0.44374 3.53233,0.67731 1.23693,0.23357 3.02286,0.60267 3.96875,0.82022 0.94588,0.21754 2.19604,0.5042 2.77812,0.63702 15.31401,3.49433 30.4224,8.82714 43.12708,15.22258 13.60154,6.84691 22.91574,12.7166 32.67604,20.59201 12.7729,10.30623 23.47982,21.76938 31.78996,34.0353 11.17531,16.49497 19.9025,36.4861 24.42922,55.95938 3.38779,14.57373 4.52784,24.05883 4.29315,35.71874 -0.0828,4.11294 -0.3192,8.26229 -0.58794,10.31875 -0.643,4.92043 -0.65572,12.57503 -0.0255,15.31991 1.27717,5.56224 2.69247,8.07737 12.29765,21.85405 3.21812,4.61574 3.98609,5.74281 13.6115,19.97604 3.34595,4.94771 6.58833,9.71021 7.20528,10.58333 1.36517,1.93202 2.54394,3.91312 3.73977,6.28524 2.62366,5.20443 3.29796,11.07681 1.89108,16.46893 -2.00259,7.67528 -6.91838,12.18873 -17.42576,15.99951 -9.34796,3.39029 -9.66861,3.63763 -9.61408,7.41611 0.0249,1.72838 0.18216,2.34278 1.21865,4.7625 2.90067,6.77168 3.71509,11.84636 2.60054,16.20418 -0.87141,3.40719 -2.21603,5.68658 -5.26855,8.93124 -1.73344,1.84254 -1.83967,2.02219 -1.48638,2.51354 0.94494,1.31419 2.24987,3.85079 2.79029,5.42396 0.46328,1.34857 0.59153,2.31945 0.59418,4.49791 0.006,5.2999 -1.93215,9.16658 -6.78554,13.53428 -4.88676,4.39774 -5.61748,5.77877 -5.57829,10.54281 0.0126,1.52796 0.29826,4.62359 0.63487,6.87916 0.78091,5.23274 0.84044,11.78931 0.14293,15.74271 -3.09324,17.53209 -15.41189,28.77096 -34.40561,31.38979 -1.71411,0.23634 -8.08897,0.33382 -22.75416,0.34794 -18.87387,0.0182 -20.52866,0.0558 -22.48959,0.51104 -9.02218,2.09469 -15.16702,6.72875 -18.98578,14.31789 -1.0653,2.1171 -4.01948,10.2067 -5.45909,14.94896 -0.72891,2.40109 -3.12938,9.96156 -5.33437,16.80104 -2.205,6.83948 -4.23986,13.17956 -4.52191,14.08906 l -0.51281,1.65365 h -11.61498 -11.61498 z"
       id="path254" /></g></svg>
